<svg width="245" height="245" viewBox="0, -10,  236 237" fill="none" xmlns="http://www.w3.org/2000/svg">
<g filter="url(#filter0_dd_758_3298)">
<path d="M207.497 108.069C207.487 119.819 205.163 131.452 200.657 142.303C196.151 153.154 189.551 163.011 181.234 171.311C172.917 179.61 163.046 186.19 152.186 190.673C141.325 195.157 129.688 197.457 117.938 197.441C68.6896 197.428 28.6897 157.31 28.6897 108.069C28.7241 58.5794 68.8276 18.4553 118.345 18.6897C142.011 18.7482 164.687 28.1909 181.4 44.9467C198.114 61.7024 207.498 84.403 207.497 108.069Z" fill="#0CA1FB"/>
</g>
<path d="M140.414 52.4C136.793 50.9448 134.731 47.9241 134.807 44.2414C134.859 42.6769 135.378 41.1639 136.297 39.8965C137.393 38.3493 138.803 37.05 140.434 36.0827C142.772 34.6552 147.028 34.7379 149.303 37.5862C152.062 41.0345 153.441 45.0345 154.131 49.3103C154.364 50.8075 154.229 52.339 153.738 53.7724C153.342 55.1175 152.577 56.3247 151.53 57.2572C150.483 58.1897 149.196 58.8102 147.814 59.0483C144.772 59.6689 141.214 58.0552 140.655 54.1655C140.545 53.5862 140.476 52.9793 140.414 52.4Z" fill="#48D9B9"/>
<path d="M122.938 18.8277C121.421 18.7449 119.897 18.6897 118.345 18.6897C68.8276 18.4553 28.7241 58.5794 28.6897 108.069C28.6882 123.703 32.7876 139.063 40.5786 152.617C48.3696 166.171 59.5797 177.444 73.0896 185.31C75.2485 178.952 76.1389 172.232 75.7103 165.531C75.9791 165.285 76.3152 165.124 76.6759 165.069C79.9009 164.141 82.92 162.608 85.5724 160.552C88.269 158.483 90.4827 156.007 91.6483 152.731C92.3411 150.915 92.5084 148.941 92.131 147.035C91.8447 145.918 91.4061 144.846 90.8276 143.848C91.1172 142.772 91.4138 141.779 91.6552 140.779C91.8923 139.769 92.0172 138.735 92.0276 137.697C92.0372 133.019 90.2412 128.517 87.0138 125.131C83.8434 121.739 79.9057 119.156 75.531 117.6C69.1859 115.241 62.3808 114.381 55.6483 115.09C54.0106 115.253 52.3572 115.136 50.7586 114.745C49.2679 114.437 47.8945 113.714 46.7964 112.66C45.6984 111.606 44.9203 110.263 44.5517 108.786C43.9103 106.572 44.3379 104.386 45.0897 102.262C46.4709 98.537 48.7637 95.2175 51.7586 92.607C54.3793 90.2277 56.9172 87.7794 59.4276 85.2828C62.669 82.069 65.931 78.938 68.7379 75.3587C71.9348 71.3718 74.2458 66.7497 75.5172 61.8001C75.9044 60.2423 75.9933 58.6254 75.7793 57.0346C75.3593 54.4281 74.7249 51.8608 73.8828 49.3587C73.7379 48.8828 73.6207 48.4001 73.4896 47.938C73.6187 47.8914 73.7561 47.8729 73.8929 47.8836C74.0296 47.8943 74.1626 47.934 74.2828 48.0001C76.7776 48.8917 79.4454 49.1915 82.0759 48.8759C85.2133 48.4859 88.2761 47.6353 91.1655 46.3518C96.967 43.8274 102.398 40.5259 107.31 36.538C112.651 32.4011 117.315 27.4593 121.138 21.8897C121.817 20.9178 122.419 19.8939 122.938 18.8277Z" fill="#48D9B9"/>
<path d="M118.358 15.6907C119.975 15.691 121.553 15.7478 123.102 15.8323L127.613 16.0784L125.636 20.1399C125.048 21.3475 124.366 22.5079 123.597 23.6086C119.614 29.4071 114.757 34.5529 109.2 38.8665C104.077 43.0256 98.4133 46.4699 92.3625 49.1028L92.3615 49.1018C89.2091 50.4997 85.8687 51.4272 82.4465 51.8528L82.4328 51.8547C80.8738 52.0417 79.3037 52.0437 77.7541 51.8665C78.0674 53.0742 78.3387 54.2927 78.5627 55.5208L78.7414 56.5569L78.7473 56.5959L78.7522 56.635C79.0166 58.6008 78.9073 60.5988 78.4289 62.5237L78.426 62.5354L78.423 62.5461C77.0483 67.8979 74.5507 72.8957 71.0979 77.2092C68.1476 80.9714 64.7235 84.2572 61.5402 87.4133C59.0102 89.9294 56.439 92.4102 53.7756 94.8284L53.7531 94.8489L53.7297 94.8684C51.1202 97.1431 49.1203 100.034 47.9123 103.278C47.2457 105.166 47.05 106.63 47.4328 107.951L47.4484 108.005L47.4621 108.06C47.6939 108.989 48.1837 109.833 48.8742 110.496C49.5646 111.159 50.4282 111.613 51.3654 111.807L51.4191 111.818L51.4709 111.83C52.5808 112.102 53.7245 112.207 54.8635 112.143L55.3518 112.105C62.5389 111.351 69.8028 112.27 76.5764 114.788H76.5754C81.3773 116.503 85.7007 119.339 89.1857 123.062L89.5334 123.435C93.075 127.335 95.0383 132.422 95.0275 137.702V137.727C95.015 138.986 94.863 140.24 94.5754 141.465L94.5734 141.474L94.5715 141.484C94.412 142.144 94.2185 142.843 94.0324 143.511C94.3774 144.242 94.668 144.997 94.8957 145.774L95.0373 146.289L95.0578 146.37L95.0734 146.452C95.5557 148.889 95.3471 151.411 94.4738 153.736L94.4748 153.737C93.0547 157.728 90.3857 160.636 87.4094 162.922C84.814 164.934 81.9036 166.496 78.799 167.546C78.9466 173.903 77.978 180.243 75.9299 186.275L74.7512 189.749L71.5803 187.903C57.6168 179.772 46.0303 168.12 37.9777 154.112C29.9252 140.103 25.6881 124.227 25.6897 108.069V108.067C25.7255 56.9301 67.1629 15.456 118.345 15.6907V15.6897L118.347 15.6907C118.351 15.6907 118.355 15.6897 118.359 15.6897L118.358 15.6907Z" stroke="url(#paint0_linear_758_3298)" stroke-opacity="0.1" stroke-width="6"/>
<path d="M207.041 117.11C206.89 117.228 206.779 117.373 206.655 117.483C205.668 118.358 204.486 118.985 203.207 119.31C201.416 119.755 199.546 119.776 197.745 119.373C194.285 118.565 191.093 116.873 188.483 114.462C186.699 112.776 185.155 110.852 183.897 108.745C177.952 99.7105 170.552 92.1932 161.138 86.676C160.419 86.2247 159.678 85.8104 158.917 85.4346C155.697 83.938 152.366 83.076 148.779 83.8829C144.041 84.9449 140.538 87.476 138.8 92.1587C138.077 94.052 137.492 95.995 137.048 97.9725C136.36 101.385 135.917 104.842 135.724 108.317C135.551 111.028 134.367 113.575 132.407 115.455C129.276 118.614 125.952 121.504 121.931 123.538C118.782 125.157 115.858 127.181 113.234 129.559C111.407 131.146 109.988 133.149 109.097 135.4C108.534 136.954 108.19 138.579 108.076 140.228C107.469 146.538 109.455 151.904 114.331 155.959C117.924 158.817 122.205 160.682 126.745 161.366C127.069 161.387 127.386 161.473 127.677 161.617C127.968 161.762 128.228 161.962 128.441 162.207C129.012 162.846 129.719 163.348 130.51 163.676C132.53 164.647 134.822 164.89 137 164.366C141.558 163.301 145.843 161.295 149.579 158.476C150.793 157.579 152.007 156.683 153.297 155.904C155.303 154.645 157.584 153.888 159.945 153.697C160.803 153.608 161.67 153.698 162.492 153.96C163.314 154.223 164.073 154.653 164.72 155.223C165.368 155.793 165.891 156.491 166.256 157.272C166.621 158.054 166.82 158.903 166.841 159.766C166.916 161.712 166.339 163.627 165.2 165.207C163.638 167.452 161.872 169.549 159.924 171.469C157.166 174.379 154.49 177.359 152 180.504C149.504 183.61 147.938 187.359 147.483 191.317C147.363 191.705 147.314 192.112 147.338 192.517C163.436 186.937 177.607 176.876 188.183 163.518C198.76 150.16 205.302 134.06 207.041 117.11Z" fill="#48D9B9"/>
<path d="M148.121 80.9556C152.333 80.0081 156.151 80.944 159.515 82.4136L160.182 82.7144L160.214 82.729L160.246 82.7446C161.078 83.1553 161.887 83.608 162.674 84.0991C172.224 89.7003 179.762 97.2515 185.82 106.223L186.402 107.096L186.439 107.15L186.472 107.207C187.587 109.074 188.954 110.778 190.534 112.273C192.757 114.32 195.472 115.757 198.414 116.447C199.751 116.744 201.137 116.73 202.467 116.403L202.77 116.317C203.455 116.098 204.087 115.739 204.631 115.265C204.639 115.256 204.653 115.243 204.674 115.221C204.755 115.136 204.947 114.938 205.207 114.737L210.739 110.461L210.025 117.417C208.228 134.934 201.466 151.574 190.535 165.38C179.604 179.186 164.959 189.585 148.32 195.352L144.579 196.649L144.343 192.697C144.303 192.036 144.367 191.373 144.531 190.733C145.086 186.308 146.856 182.122 149.648 178.641C152.212 175.402 154.954 172.352 157.747 169.405L157.781 169.369L157.817 169.333C159.634 167.542 161.281 165.587 162.737 163.494L162.767 163.453C163.514 162.416 163.893 161.159 163.844 159.881L163.843 159.86L163.842 159.839C163.831 159.39 163.727 158.948 163.537 158.542C163.347 158.135 163.075 157.772 162.738 157.475C162.401 157.179 162.007 156.955 161.579 156.818C161.151 156.681 160.7 156.635 160.253 156.681L160.187 156.687C158.306 156.839 156.489 157.442 154.891 158.445L154.869 158.458L154.848 158.471C153.697 159.167 152.594 159.979 151.361 160.889L151.36 160.888C147.301 163.946 142.649 166.123 137.701 167.281L137.702 167.283C134.861 167.967 131.872 167.651 129.236 166.391C128.135 165.914 127.146 165.215 126.328 164.336L126.298 164.333C121.238 163.57 116.467 161.492 112.463 158.306L112.438 158.286L112.413 158.265C106.712 153.524 104.396 147.156 105.09 139.941C105.229 138.041 105.627 136.17 106.275 134.378L106.291 134.337L106.307 134.295C107.375 131.598 109.077 129.196 111.268 127.293C114.073 124.758 117.196 122.598 120.56 120.87L120.568 120.866L120.576 120.861C124.176 119.039 127.235 116.412 130.276 113.343L130.303 113.316L130.33 113.291C131.748 111.93 132.605 110.087 132.731 108.126C132.932 104.516 133.392 100.924 134.107 97.3794L134.114 97.3472L134.121 97.3159C134.596 95.1977 135.223 93.1163 135.997 91.0884C138.156 85.2975 142.596 82.1955 148.121 80.9565V80.9556Z" stroke="url(#paint1_linear_758_3298)" stroke-opacity="0.1" stroke-width="6"/>
<path d="M191.138 82.9794C194.586 89.4001 199.883 93.6553 206.724 96.4277C205.039 83.6894 200.635 71.4623 193.811 60.5749C186.986 49.6874 177.902 40.3939 167.172 33.3242C167.386 33.6897 167.586 34.0139 167.779 34.3932C169.488 37.2158 170.728 40.2973 171.448 43.5173C172.138 47.138 171.531 50.3518 168.91 53.069C168.043 54.0008 167.256 55.0044 166.559 56.0691C165.826 57.1221 165.328 58.321 165.101 59.5838C164.874 60.8467 164.922 62.1437 165.241 63.3863C166.012 67.0075 167.805 70.3319 170.407 72.9656C175.505 78.0766 182.069 81.473 189.186 82.6828C189.847 82.6963 190.503 82.796 191.138 82.9794Z" fill="#48D9B9"/>
<path d="M168.823 30.8193C179.912 38.1256 189.3 47.7298 196.353 58.9814C203.405 70.2332 207.956 82.8697 209.698 96.0342L210.374 101.144L205.598 99.208C198.677 96.4034 193.06 92.107 189.226 85.6875C189.192 85.6861 189.158 85.6833 189.125 85.6826L188.902 85.6777L188.684 85.6406C180.952 84.3263 173.822 80.6362 168.283 75.084L168.278 75.0791L168.272 75.0742C165.279 72.0449 163.214 68.224 162.318 64.0615C161.908 62.423 161.849 60.7158 162.148 59.0527C162.452 57.3651 163.117 55.7628 164.097 54.3555C164.876 53.175 165.751 52.0608 166.715 51.0254L166.732 51.0059L166.751 50.9863C168.545 49.1267 169.045 46.9834 168.507 44.1162C167.855 41.2339 166.744 38.4753 165.213 35.9473L165.156 35.8525L165.105 35.7539C164.965 35.4777 164.839 35.2765 164.583 34.8389L168.823 30.8193Z" stroke="url(#paint2_linear_758_3298)" stroke-opacity="0.1" stroke-width="6"/>
<path d="M117.938 197.441C124.127 197.45 130.3 196.817 136.359 195.552C135.14 194.514 133.829 193.591 132.441 192.793C130.743 191.754 128.804 191.177 126.814 191.117C124.999 191.154 123.204 190.734 121.593 189.897C118.538 188.31 115.145 187.828 111.731 187.738C104.542 187.618 97.4349 189.276 91.0414 192.566C90.7643 192.668 90.5092 192.823 90.2896 193.021C99.2141 195.946 108.546 197.439 117.938 197.441Z" fill="#48D9B9"/>
<path d="M111.781 184.739H111.81C115.308 184.831 119.094 185.314 122.633 187.061L122.975 187.234L122.977 187.235C124.142 187.84 125.441 188.144 126.754 188.118L126.829 188.117L126.903 188.119C129.387 188.193 131.81 188.907 133.936 190.192L134.512 190.532C135.847 191.34 137.116 192.256 138.304 193.268L142.964 197.238L136.971 198.489C130.711 199.796 124.332 200.449 117.937 200.441V200.442L117.935 200.441L117.934 200.442V200.441C108.226 200.438 98.58 198.896 89.3551 195.872L84.4352 194.258L88.2809 190.792C88.7306 190.387 89.2462 190.062 89.8043 189.83C96.6023 186.36 104.148 184.611 111.781 184.739Z" stroke="url(#paint3_linear_758_3298)" stroke-opacity="0.1" stroke-width="6"/>
<g style="mix-blend-mode:multiply">
<path d="M174.71 38.8828C188.797 56.0299 196.001 77.8036 194.922 99.9684C193.843 122.133 184.558 143.104 168.873 158.802C153.188 174.5 132.225 183.802 110.061 184.9C87.8969 185.997 66.1172 178.81 48.9586 164.738C56.8752 174.39 66.7257 182.277 77.8755 187.891C89.0254 193.505 101.228 196.722 113.696 197.333C126.164 197.945 138.623 195.939 150.269 191.443C161.915 186.948 172.49 180.063 181.313 171.232C190.137 162.401 197.013 151.821 201.499 140.171C205.985 128.521 207.981 116.061 207.359 103.593C206.737 91.1254 203.51 78.926 197.887 67.7807C192.264 56.6354 184.369 46.7915 174.71 38.8828Z" fill="#EAEAEA"/>
</g>
<defs>
<filter id="filter0_dd_758_3298" x="0.689651" y="0.688721" width="234.807" height="234.753" filterUnits="userSpaceOnUse" color-interpolation-filters="sRGB">
<feFlood flood-opacity="0" result="BackgroundImageFix"/>
<feColorMatrix in="SourceAlpha" type="matrix" values="0 0 0 0 0 0 0 0 0 0 0 0 0 0 0 0 0 0 127 0" result="hardAlpha"/>
<feOffset dy="10"/>
<feGaussianBlur stdDeviation="14"/>
<feComposite in2="hardAlpha" operator="out"/>
<feColorMatrix type="matrix" values="0 0 0 0 0.282353 0 0 0 0 0.85098 0 0 0 0 0.72549 0 0 0 1 0"/>
<feBlend mode="normal" in2="BackgroundImageFix" result="effect1_dropShadow_758_3298"/>
<feColorMatrix in="SourceAlpha" type="matrix" values="0 0 0 0 0 0 0 0 0 0 0 0 0 0 0 0 0 0 127 0" result="hardAlpha"/>
<feOffset dy="5"/>
<feGaussianBlur stdDeviation="7"/>
<feComposite in2="hardAlpha" operator="out"/>
<feColorMatrix type="matrix" values="0 0 0 0 0 0 0 0 0 0 0 0 0 0 0 0 0 0 0.15 0"/>
<feBlend mode="normal" in2="effect1_dropShadow_758_3298" result="effect2_dropShadow_758_3298"/>
<feBlend mode="normal" in="SourceGraphic" in2="effect2_dropShadow_758_3298" result="shape"/>
</filter>
<linearGradient id="paint0_linear_758_3298" x1="75.8138" y1="18.6887" x2="75.8138" y2="185.31" gradientUnits="userSpaceOnUse">
<stop stop-color="white"/>
<stop offset="1" stop-color="white" stop-opacity="0"/>
</linearGradient>
<linearGradient id="paint1_linear_758_3298" x1="157.506" y1="83.5737" x2="157.506" y2="192.517" gradientUnits="userSpaceOnUse">
<stop stop-color="white"/>
<stop offset="1" stop-color="white" stop-opacity="0"/>
</linearGradient>
<linearGradient id="paint2_linear_758_3298" x1="185.842" y1="33.3242" x2="185.842" y2="96.4277" gradientUnits="userSpaceOnUse">
<stop stop-color="white"/>
<stop offset="1" stop-color="white" stop-opacity="0"/>
</linearGradient>
<linearGradient id="paint3_linear_758_3298" x1="113.324" y1="187.732" x2="113.324" y2="197.442" gradientUnits="userSpaceOnUse">
<stop stop-color="white"/>
<stop offset="1" stop-color="white" stop-opacity="0"/>
</linearGradient>
</defs>
</svg>
