<svg width="40" height="40" viewBox="0 0 40 40" fill="none" xmlns="http://www.w3.org/2000/svg">
<rect width="40" height="40" rx="12" fill="#3B74FF"/>
<path d="M24.7 26.9801H15.3C14.88 26.9801 14.41 26.6501 14.27 26.2501L10.13 14.6701C9.54 13.0101 10.23 12.5001 11.65 13.5201L15.55 16.3101C16.2 16.7601 16.94 16.5301 17.22 15.8001L18.98 11.1101C19.54 9.61011 20.47 9.61011 21.03 11.1101L22.79 15.8001C23.07 16.5301 23.81 16.7601 24.45 16.3101L28.11 13.7001C29.67 12.5801 30.42 13.1501 29.78 14.9601L25.74 26.2701C25.59 26.6501 25.12 26.9801 24.7 26.9801Z" stroke="white" stroke-width="1.5" stroke-linecap="round" stroke-linejoin="round"/>
<path d="M14.5 30H25.5" stroke="white" stroke-width="1.5" stroke-linecap="round" stroke-linejoin="round"/>
<path d="M17.5 22H22.5" stroke="white" stroke-width="1.5" stroke-linecap="round" stroke-linejoin="round"/>
</svg>
