<svg width="95" height="71" viewBox="0 0 95 71" fill="none" xmlns="http://www.w3.org/2000/svg">
<g clip-path="url(#clip0_758_1967)">
<path fill-rule="evenodd" clip-rule="evenodd" d="M0.432434 0.270508H94.4144V70.757H0.432434V0.270508Z" fill="#229E45"/>
<path fill-rule="evenodd" clip-rule="evenodd" d="M47.6291 64.2954L91.9034 35.5575L47.3648 6.73145L2.9436 35.6162L47.6291 64.2954Z" fill="#F8E509"/>
<path fill-rule="evenodd" clip-rule="evenodd" d="M66.9246 35.513C66.9246 45.8363 58.5397 54.2066 48.187 54.2066C44.4875 54.2008 40.8727 53.0983 37.7997 51.0384C34.7267 48.9785 32.3334 46.0538 30.9223 42.6339C29.5113 39.2141 29.1458 35.4527 29.8722 31.8251C30.5986 28.1976 32.3841 24.8669 35.0032 22.254C37.6222 19.6411 40.9571 17.8634 44.5863 17.1456C48.2156 16.4278 51.9761 16.8021 55.3926 18.2212C58.8092 19.6403 61.7283 22.0404 63.7809 25.1183C65.8335 28.1961 66.9275 31.8135 66.9246 35.513Z" fill="#2B49A3"/>
<path fill-rule="evenodd" clip-rule="evenodd" d="M42.0343 46.7188L41.4469 46.3811L40.8595 46.6748L40.9917 46.0139L40.5218 45.5147L41.1826 45.4412L41.5057 44.8539L41.7847 45.4706L42.4308 45.5881L41.9462 46.0286M54.575 49.8907L54.0023 49.553L53.4149 49.8466L53.5324 49.1858L53.0772 48.7012L53.738 48.6278L54.0464 48.0257L54.3401 48.6425L54.9862 48.76L54.4869 49.2152M49.1711 44.8098L48.6718 44.5161L48.1578 44.7804L48.2753 44.2077L47.8641 43.7819L48.4515 43.7231L48.7158 43.1945L48.9508 43.7378L49.5235 43.8406L49.083 44.2371M61.8586 42.9889L61.3594 42.6952L60.8454 42.9595L60.9629 42.3868L60.5664 41.9757L61.1391 41.9169L61.4034 41.403L61.6384 41.9316L62.1964 42.0344L61.7705 42.4162M48.9508 39.1856L48.3634 38.8625L47.776 39.1562L47.8935 38.4807L47.4383 37.9961L48.0991 37.9227L48.4075 37.3206L48.7012 37.9374L49.3473 38.0548L48.848 38.5248M33.4878 33.3851L32.9004 33.0621L32.313 33.3557L32.4599 32.6803L31.9753 32.1957L32.6508 32.1222L32.9445 31.5202L33.2382 32.1369L33.8843 32.2544L33.3997 32.7096M35.3528 41.1093L34.7654 40.7715L34.178 41.0652L34.3102 40.4044L33.8403 39.9198L34.5011 39.8317L34.8094 39.2443L35.1031 39.8611L35.7493 39.9785L35.2647 40.4338M54.6485 30.551L54.1198 30.2573L53.5912 30.5216L53.7086 29.9342L53.2975 29.4937L53.8848 29.4203L54.1639 28.8916L54.4135 29.4496L55.0009 29.5524L54.5603 29.9489M53.5765 35.5731L53.18 35.3382L52.7541 35.5438L52.8422 35.0739L52.5192 34.7361L52.9891 34.6774L53.2094 34.2662L53.4003 34.7067L53.8408 34.7802L53.5177 35.1032M32.6361 42.5043L32.2396 42.284L31.8431 42.4749L31.9312 42.0344L31.6229 41.7113L32.0634 41.6526L32.269 41.2561L32.4599 41.6673L32.9004 41.7554L32.5627 42.0491M61.9614 44.2958L61.6384 44.1343L61.3153 44.2812L61.3887 43.9434L61.1391 43.7084L61.4915 43.6644L61.6677 43.3707L61.8146 43.6644L62.1817 43.7378L61.9027 43.9581" fill="#FFFFEF"/>
<path fill-rule="evenodd" clip-rule="evenodd" d="M32.6361 42.505L32.2396 42.2848L31.8431 42.4757L31.9312 42.0351L31.6229 41.7121L32.0634 41.6533L32.269 41.2568L32.4599 41.668L32.9004 41.7561L32.5627 42.0498" fill="#FFFFEF"/>
<path fill-rule="evenodd" clip-rule="evenodd" d="M32.6361 42.5056L32.2396 42.2853L31.8431 42.4762L31.9312 42.0357L31.6229 41.7126L32.0634 41.6539L32.269 41.2574L32.4599 41.6685L32.9004 41.7567L32.5627 42.0503M38.7743 42.4909L38.3925 42.2853L37.996 42.4762L38.0841 42.0357L37.7757 41.7126L38.2163 41.6539L38.4219 41.2574L38.6128 41.6685L39.0533 41.742L38.7156 42.0503M38.0107 44.5467L37.6289 44.3265L37.2324 44.5321L37.3205 44.0915L37.0121 43.7538L37.4527 43.695L37.6583 43.2985L37.8492 43.7097L38.2897 43.7978L37.952 44.0915M50.7864 40.8315L50.4046 40.5966L49.9934 40.8021L50.0815 40.3616L49.7878 40.0239L50.2284 39.9798L50.4339 39.5833L50.6102 39.9945L51.0507 40.0679L50.7276 40.3763M47.0418 40.8168L46.6453 40.5966L46.2488 40.8021L46.3369 40.3616L46.0432 40.0239L46.4838 39.9798L46.6894 39.5686L46.8656 39.9945L47.3061 40.0679L46.983 40.3763M36.88 39.5246L36.6303 39.3777L36.3807 39.4952L36.4394 39.2162L36.2485 39.0106L36.5275 38.9812L36.645 38.7316L36.7625 38.9959L37.0415 39.04L36.8359 39.2309M61.4768 45.8977L61.095 45.6775L60.6985 45.883L60.7866 45.4425L60.4783 45.1048L60.9188 45.046L61.1244 44.6495L61.3153 45.0607L61.7558 45.1488L61.4181 45.4425M58.3637 46.3236L58.0406 46.118L57.7029 46.2942L57.7763 45.9124L57.5266 45.6481L57.8938 45.604L58.07 45.2663L58.2168 45.6187L58.5839 45.6775L58.3049 45.9418M59.8321 46.2795L59.5385 46.1033L59.2301 46.2502L59.2888 45.9124L59.0539 45.6628L59.3916 45.6187L59.5531 45.325L59.7 45.6187L60.0377 45.6921L59.7881 45.9271M64.0613 42.579L63.7676 42.4321L63.4739 42.579L63.5474 42.2412L63.3124 41.9916L63.6502 41.9476L63.797 41.6539L63.9439 41.9622L64.2522 42.021L64.0173 42.2559M58.3196 48.3941L57.9525 48.1885L57.556 48.3648L57.6441 47.9536L57.3504 47.6599L57.791 47.6158L57.9819 47.2487L58.1581 47.6305L58.5986 47.7039L58.2609 47.983M58.349 50.0682L57.9966 49.8626L57.6441 50.0535L57.7322 49.6423L57.4532 49.3486L57.8497 49.2899L58.0259 48.9228L58.1875 49.3046L58.5839 49.378L58.2903 49.6717M55.5002 46.2795L55.2212 46.1033L54.9275 46.2502L54.9862 45.9271L54.7659 45.6775L55.089 45.6481L55.2358 45.3544L55.3827 45.6481L55.7057 45.7068L55.4708 45.9418M52.8569 46.2795L52.5632 46.1033L52.2695 46.2502L52.343 45.9271L52.108 45.6775L52.4457 45.6481L52.5926 45.3544L52.7394 45.6481L53.0478 45.7068L52.8129 45.9418M48.3487 42.3294L48.055 42.1678L47.7613 42.3147L47.8348 41.9769L47.5998 41.742L47.9229 41.6979L48.0697 41.4042L48.2166 41.6979L48.5396 41.7713L48.3047 41.9916M48.848 50.3619L48.613 50.2297L48.3487 50.3619L48.4075 50.0682L48.2166 49.8626L48.4956 49.8332L48.6277 49.5836L48.7452 49.8479L49.0242 49.892L48.8186 50.0829M42.0343 37.3659L41.4469 37.0282L40.8595 37.3219L40.9917 36.6611L40.5218 36.1765L41.1826 36.0884L41.5057 35.501L41.7847 36.1177L42.4308 36.2352L41.9462 36.6904" fill="#FFFFEF"/>
<path fill-rule="evenodd" clip-rule="evenodd" d="M65.6912 42.2391C66.055 41.2951 66.3399 40.3226 66.5429 39.3315C56.5867 30.5941 45.4998 26.1153 31.4906 27.0404C30.9825 28.0236 30.5647 29.0508 30.2424 30.1095C46.8361 28.5236 59.0244 35.8659 65.6912 42.2391Z" fill="white"/>
<path d="M61.227 37.3356L61.5647 37.5265C61.5143 37.6262 61.4988 37.74 61.5207 37.8496C61.5551 37.9558 61.6285 38.0451 61.7262 38.0992C61.829 38.1726 61.9318 38.2167 62.0199 38.202C62.108 38.202 62.1668 38.1579 62.2108 38.0992C62.2364 38.0602 62.2469 38.0132 62.2402 37.967C62.2282 37.9128 62.203 37.8624 62.1668 37.8202C62.1374 37.7761 62.064 37.6733 61.9465 37.5559C61.8258 37.4312 61.7353 37.2805 61.6822 37.1153C61.6455 36.9903 61.655 36.8563 61.709 36.7377C61.7629 36.6191 61.8576 36.5238 61.9759 36.4692C62.0827 36.4246 62.2007 36.4144 62.3136 36.4398C62.4517 36.4716 62.5817 36.5316 62.6954 36.616C62.901 36.7629 63.0332 36.9097 63.0772 37.086C63.0975 37.1684 63.1002 37.2542 63.085 37.3377C63.0698 37.4212 63.0371 37.5005 62.9891 37.5705L62.6367 37.3503C62.6807 37.2622 62.6954 37.1741 62.6661 37.1006C62.6514 37.0272 62.5926 36.9538 62.4898 36.8951C62.4144 36.8344 62.3221 36.7985 62.2255 36.7923C62.1989 36.7914 62.1725 36.7977 62.1493 36.8107C62.126 36.8236 62.1067 36.8426 62.0934 36.8657C62.064 36.9097 62.064 36.9538 62.0787 37.0125C62.0934 37.0713 62.1668 37.1887 62.3136 37.3356C62.4605 37.4824 62.5486 37.6146 62.6073 37.7027C62.6598 37.7989 62.6835 37.9082 62.6757 38.0175C62.6679 38.1269 62.6289 38.2317 62.5633 38.3195C62.4946 38.4193 62.3973 38.4961 62.2843 38.5397C62.1741 38.5904 62.051 38.6058 61.9318 38.5838C61.7997 38.5544 61.6675 38.4957 61.5207 38.3929C61.3004 38.246 61.1682 38.0845 61.1242 37.9083C61.0763 37.7085 61.1079 37.4979 61.2123 37.3209L61.227 37.3356ZM59.5235 36.2196L59.8907 36.4105C59.8452 36.5119 59.8348 36.6256 59.8613 36.7335C59.8988 36.8343 59.972 36.9179 60.0669 36.9685C60.1844 37.0419 60.2725 37.0713 60.3606 37.0566C60.4487 37.0566 60.5074 37.0125 60.5515 36.9391C60.5737 36.9042 60.5841 36.8629 60.5808 36.8216C60.5808 36.7776 60.5515 36.7188 60.5074 36.6748C60.4322 36.584 60.3538 36.4958 60.2725 36.4105C60.1109 36.2489 60.0081 36.1168 59.9788 35.9993C59.9547 35.9237 59.9476 35.8438 59.9577 35.7652C59.9678 35.6865 59.9951 35.6111 60.0375 35.5441C60.0933 35.4534 60.1752 35.3818 60.2725 35.3385C60.3734 35.292 60.4859 35.2766 60.5955 35.2944C60.7313 35.3173 60.8612 35.3672 60.9773 35.4413C61.1976 35.5881 61.3298 35.735 61.3738 35.8965C61.4006 35.979 61.4092 36.0664 61.399 36.1526C61.3889 36.2387 61.3603 36.3217 61.3151 36.3958L60.948 36.1902C60.992 36.0874 61.0067 36.014 60.9773 35.9405C60.948 35.8671 60.8892 35.7937 60.7864 35.735C60.7052 35.6766 60.6074 35.6458 60.5074 35.6469C60.4833 35.6485 60.46 35.656 60.4395 35.6688C60.419 35.6816 60.402 35.6993 60.3899 35.7203C60.3606 35.7643 60.3606 35.8084 60.3753 35.8671C60.3899 35.9259 60.478 36.0433 60.6249 36.1902C60.7717 36.337 60.8745 36.4545 60.9186 36.5426C60.9774 36.6347 61.0087 36.7417 61.0087 36.851C61.0087 36.9603 60.9774 37.0673 60.9186 37.1594C60.8553 37.2618 60.7634 37.3435 60.6543 37.3943C60.5441 37.445 60.421 37.4604 60.3018 37.4384C60.1507 37.4128 60.006 37.358 59.876 37.2769C59.6861 37.1757 59.5399 37.0085 59.4648 36.8069C59.4081 36.6109 59.4291 36.4005 59.5235 36.2196ZM57.4383 35.6615L58.5103 33.8994L59.8025 34.707L59.6263 35.0007L58.6865 34.4133L58.4516 34.8098L59.3326 35.3532L59.1417 35.6469L58.2607 35.1035L57.967 35.5881L58.9508 36.1755L58.7746 36.4692L57.453 35.6615H57.4383ZM54.3986 33.1651L54.5601 32.8714L55.3531 33.2679L54.986 34.0022C54.8685 34.0315 54.7216 34.0462 54.5454 34.0315C54.3762 34.0129 54.2119 33.9631 54.0608 33.8847C53.8831 33.7981 53.7312 33.6665 53.6203 33.5029C53.5193 33.3509 53.468 33.1713 53.4735 32.9889C53.4809 32.7991 53.5311 32.6134 53.6203 32.4456C53.7085 32.269 53.8398 32.1175 54.0021 32.0051C54.1573 31.8977 54.342 31.8413 54.5307 31.8435C54.6776 31.8435 54.8244 31.8876 55.0007 31.9904C55.2356 32.0932 55.3825 32.24 55.4559 32.4015C55.5322 32.5619 55.5479 32.7445 55.4999 32.9155L55.1034 32.798C55.1277 32.6997 55.1173 32.5959 55.0741 32.5043C55.03 32.4162 54.9566 32.3575 54.8391 32.2987C54.7707 32.2597 54.6947 32.2355 54.6162 32.2279C54.5378 32.2203 54.4586 32.2295 54.3839 32.2547C54.2371 32.2987 54.1049 32.4309 54.0021 32.6365C53.8993 32.8421 53.8553 33.033 53.8993 33.1945C53.9196 33.2711 53.9564 33.3424 54.0071 33.4032C54.0579 33.4641 54.1213 33.5132 54.193 33.5469C54.2664 33.591 54.3545 33.6204 54.4426 33.6204C54.5302 33.6337 54.6194 33.6337 54.707 33.6204L54.8244 33.3854L54.3986 33.1651ZM41.153 29.8905L41.4467 27.8346L42.0634 27.9374L42.225 29.3765L42.7977 28.0549L43.4144 28.143L43.1207 30.1695L42.7243 30.1107L42.9739 28.5101L42.3278 30.052L41.9313 29.9932L41.7698 28.3339L41.5348 29.9492L41.153 29.8905ZM39.0825 29.6408L39.2734 27.585L40.7859 27.7318L40.7565 28.0842L39.6552 27.9814L39.6111 28.422L40.639 28.5248L40.595 28.8772L39.5671 28.7744L39.523 29.3324L40.6684 29.4352L40.639 29.7877L39.0825 29.6408Z" fill="#309E3A"/>
<path d="M32.2249 28.361C32.2249 28.1407 32.2689 27.9792 32.3277 27.8324C32.3791 27.7279 32.4488 27.6335 32.5332 27.5534C32.6086 27.4774 32.6985 27.4174 32.7976 27.3771C32.9444 27.3331 33.0913 27.3037 33.2381 27.3037C33.5465 27.3037 33.7814 27.4212 33.9723 27.5974C34.0632 27.7097 34.1308 27.8389 34.1711 27.9776C34.2115 28.1163 34.2238 28.2616 34.2073 28.4051C34.2073 28.7281 34.1045 28.9924 33.9136 29.1833C33.8155 29.274 33.6995 29.3431 33.573 29.3861C33.4465 29.4291 33.3124 29.4451 33.1794 29.433C33.0481 29.4343 32.918 29.409 32.7968 29.3585C32.6756 29.308 32.566 29.2334 32.4745 29.1393C32.2918 28.923 32.202 28.6432 32.2249 28.361Z" fill="#309E3A"/>
<path d="M32.6508 28.3624C32.6508 28.5826 32.6948 28.7588 32.7976 28.891C32.9004 29.0085 33.0326 29.0819 33.2088 29.0819C33.285 29.0872 33.3615 29.0755 33.4326 29.0476C33.5038 29.0196 33.5678 28.9762 33.62 28.9204C33.7228 28.8029 33.7668 28.6267 33.7815 28.377C33.7815 28.1421 33.7521 27.9659 33.6347 27.8484C33.5868 27.7892 33.5264 27.7414 33.4579 27.7084C33.3893 27.6754 33.3143 27.658 33.2382 27.6575C33.1609 27.655 33.0841 27.6695 33.013 27.7C32.942 27.7304 32.8785 27.7761 32.827 27.8337C32.7095 27.9512 32.6655 28.1274 32.6508 28.3624Z" fill="#F7FFFF"/>
<path d="M34.6478 29.4201L34.6771 27.3643H35.5582C35.7785 27.3643 35.9253 27.3936 36.0281 27.4377C36.1309 27.4671 36.2043 27.5405 36.2631 27.6286C36.3218 27.7167 36.3512 27.8342 36.3512 27.9663C36.3523 28.1076 36.2999 28.244 36.2043 28.3481C36.0958 28.4498 35.9561 28.5119 35.8079 28.5243L36.0281 28.7006C36.0869 28.7593 36.1603 28.8768 36.2484 29.0383L36.498 29.4495H35.9988L35.7051 28.9796L35.4995 28.6859C35.4639 28.6455 35.4183 28.6151 35.3673 28.5978C35.3005 28.5783 35.2313 28.5684 35.1617 28.5684H35.0736V29.4201H34.6478Z" fill="#309E3A"/>
<path d="M35.0882 28.2464H35.3819C35.5875 28.2464 35.7196 28.2464 35.7637 28.2171C35.8077 28.2171 35.8518 28.173 35.8812 28.1436C35.9105 28.1143 35.9252 28.0408 35.9252 27.9968C35.9252 27.9087 35.9105 27.8499 35.8665 27.8206C35.8371 27.7765 35.7784 27.7471 35.7196 27.7325H35.4259L35.0882 27.7178V28.2317V28.2464Z" fill="white"/>
<path d="M36.9974 27.4639L37.761 27.5079C37.9225 27.5079 38.0547 27.5226 38.1428 27.552C38.2571 27.5934 38.3584 27.6644 38.4365 27.7576C38.5211 27.8602 38.5813 27.9807 38.6127 28.11C38.6568 28.2422 38.6714 28.4037 38.6568 28.5946C38.6566 28.7445 38.6318 28.8933 38.5833 29.0351C38.5246 29.182 38.4365 29.2995 38.3337 29.3876C38.2481 29.4581 38.1477 29.5083 38.04 29.5344C37.9519 29.5638 37.8197 29.5638 37.6729 29.5638L36.8946 29.5197L36.9974 27.4639Z" fill="#309E3A"/>
<path d="M37.3939 27.8291L37.3205 29.1948H37.8785C37.9519 29.1948 38.0107 29.1654 38.0547 29.1214C38.0988 29.0773 38.1428 29.0186 38.1722 28.9305C38.2016 28.8423 38.2309 28.7102 38.2309 28.5487L38.2163 28.1815C38.1953 28.1041 38.1549 28.0333 38.0988 27.9759C38.05 27.9269 37.9893 27.8915 37.9226 27.8732C37.8115 27.8484 37.6985 27.8337 37.5848 27.8291H37.3939Z" fill="white"/>
<path d="M47.071 31.1387L47.5556 29.1416L48.2018 29.2884L48.6717 29.4353C48.7745 29.494 48.8626 29.5821 48.9066 29.7143C48.9654 29.8318 48.9654 29.9639 48.936 30.1255C48.9066 30.243 48.8626 30.3457 48.7892 30.4192C48.7353 30.4837 48.6679 30.5355 48.5918 30.571C48.5156 30.6066 48.4326 30.6249 48.3486 30.6248C48.2458 30.6248 48.099 30.5954 47.9081 30.5513L47.6584 30.4779L47.4822 31.2415L47.071 31.1387Z" fill="#309E3A"/>
<path d="M47.864 29.5811L47.7465 30.1391L47.9668 30.1978C48.1136 30.2272 48.2311 30.2566 48.2898 30.2419C48.3469 30.2339 48.4002 30.2085 48.4423 30.1691C48.4844 30.1296 48.5132 30.0781 48.5248 30.0216C48.5248 29.9482 48.5248 29.8894 48.4954 29.8307C48.4632 29.771 48.4113 29.7243 48.3486 29.6985L48.0696 29.6251L47.8787 29.5811H47.864Z" fill="white"/>
<path d="M48.9802 31.7089L49.6703 29.7705L50.478 30.0642C50.6983 30.1376 50.8304 30.211 50.9185 30.2698C50.992 30.3432 51.0507 30.4166 51.0654 30.5341C51.0801 30.6516 51.0948 30.7544 51.0654 30.8719C51.0066 31.0187 50.9185 31.1215 50.8011 31.1949C50.6836 31.2537 50.5367 31.2683 50.3605 31.239C50.4193 31.3124 50.478 31.3858 50.5074 31.4739L50.6248 31.8704L50.713 32.3256L50.2577 32.1641L50.1109 31.6355C50.0842 31.5159 50.0499 31.3982 50.0081 31.283C49.9886 31.2373 49.9584 31.197 49.92 31.1656C49.8906 31.1215 49.8319 31.0921 49.7291 31.0628L49.6557 31.0334L49.362 31.8557L48.9802 31.7089Z" fill="#309E3A"/>
<path d="M49.7733 30.7239L50.0523 30.8266C50.2432 30.9001 50.3607 30.9294 50.4194 30.9294C50.4635 30.9294 50.5075 30.9294 50.5516 30.8854C50.5956 30.856 50.625 30.812 50.6397 30.7532C50.6691 30.6945 50.6691 30.6357 50.6397 30.577C50.618 30.5201 50.5762 30.4731 50.5222 30.4448L50.2285 30.3421L49.9348 30.2393L49.7586 30.7239H49.7733Z" fill="white"/>
<path d="M51.3883 31.6377C51.4388 31.4658 51.5237 31.3059 51.6379 31.1678C51.7122 31.0792 51.8017 31.0046 51.9023 30.9475C51.9933 30.8961 52.0927 30.8613 52.196 30.8447C52.3428 30.8447 52.4896 30.8447 52.6512 30.9035C52.7824 30.9359 52.9053 30.9959 53.0116 31.0795C53.118 31.163 53.2053 31.2682 53.2679 31.3881C53.3854 31.623 53.3854 31.902 53.2973 32.2251C53.2246 32.5026 53.0452 32.7402 52.798 32.8859C52.5778 33.0181 52.3134 33.0327 52.0344 32.9446C51.9035 32.9113 51.781 32.851 51.6748 32.7675C51.5686 32.6841 51.481 32.5793 51.4177 32.46C51.3588 32.3317 51.326 32.1929 51.3209 32.0518C51.3159 31.9107 51.3388 31.77 51.3883 31.6377Z" fill="#309E3A"/>
<path d="M51.7994 31.7529C51.7407 31.9731 51.726 32.164 51.7994 32.3109C51.8728 32.4577 51.9756 32.5458 52.1372 32.6046C52.284 32.6486 52.4309 32.6339 52.5777 32.5458C52.7245 32.4724 52.8127 32.3109 52.8861 32.0759C52.9595 31.8557 52.9595 31.6794 52.8861 31.5326C52.8571 31.4629 52.8131 31.4005 52.7573 31.3497C52.7014 31.299 52.6351 31.2611 52.563 31.2389C52.4908 31.214 52.414 31.205 52.3379 31.2126C52.2619 31.2202 52.1884 31.2442 52.1225 31.283C51.9756 31.3711 51.8728 31.5179 51.7994 31.7529Z" fill="white"/>
<path d="M55.3974 34.4996L56.3372 32.6787L57.1155 33.0752C57.2622 33.1456 57.3962 33.2399 57.512 33.3542C57.5854 33.4276 57.6295 33.5157 57.6295 33.6332C57.6295 33.7507 57.6295 33.8535 57.5707 33.9563C57.5143 34.0883 57.4091 34.1935 57.277 34.25C57.1302 34.2793 56.9833 34.2793 56.8218 34.2206C56.8806 34.3087 56.9099 34.3968 56.9393 34.4702C56.9687 34.5584 56.9833 34.6905 56.998 34.8814L57.0274 35.3513L56.5869 35.1311L56.5281 34.5877C56.5212 34.4645 56.5065 34.3419 56.4841 34.2206C56.4741 34.1657 56.4486 34.1147 56.4106 34.0738L56.2344 33.971L56.161 33.9269L55.7645 34.6905L55.3974 34.4996Z" fill="#309E3A"/>
<path d="M56.3078 33.633L56.5868 33.7798C56.763 33.868 56.8805 33.9267 56.9246 33.9267C56.9686 33.9267 57.0274 33.9267 57.0714 33.8973C57.1155 33.8826 57.1448 33.8386 57.1742 33.7798C57.2036 33.7211 57.2183 33.6624 57.2036 33.6036C57.1854 33.5452 57.1495 33.4938 57.1008 33.4568C57.0148 33.404 56.9266 33.355 56.8364 33.3099L56.5428 33.1631L56.3078 33.633Z" fill="white"/>
<path d="M63.0038 38.2598C63.0988 38.1088 63.2237 37.9788 63.3709 37.878C63.4697 37.8147 63.5792 37.7699 63.694 37.7458C63.8005 37.7241 63.9104 37.7241 64.017 37.7458C64.1639 37.7752 64.296 37.8339 64.4282 37.922C64.5425 37.9932 64.6407 38.0874 64.7165 38.1987C64.7924 38.3099 64.8442 38.4358 64.8687 38.5682C64.9128 38.8178 64.8394 39.0968 64.6631 39.3758C64.5157 39.6185 64.2781 39.7928 64.0023 39.8604C63.8709 39.8888 63.7349 39.8891 63.6033 39.8613C63.4717 39.8334 63.3474 39.7781 63.2387 39.6989C63.1245 39.6277 63.0263 39.5335 62.9504 39.4222C62.8746 39.311 62.8227 39.1851 62.7982 39.0527C62.7541 38.7884 62.8276 38.5241 63.0038 38.2598Z" fill="#309E3A"/>
<path d="M63.371 38.496C63.2242 38.6869 63.1801 38.8631 63.2095 39.0246C63.2203 39.099 63.2469 39.1702 63.2874 39.2335C63.3279 39.2968 63.3815 39.3508 63.4445 39.3917C63.5913 39.4945 63.7382 39.5239 63.885 39.4798C64.0319 39.4358 64.1787 39.333 64.3109 39.1274C64.443 38.9218 64.5018 38.7456 64.4724 38.5988C64.4577 38.4519 64.3696 38.3197 64.2374 38.217C64.1053 38.1142 63.9438 38.0995 63.7969 38.1435C63.6501 38.1729 63.5032 38.2904 63.3564 38.496H63.371Z" fill="white"/>
<path d="M44.7509 30.3014L45.0887 28.8623L46.146 29.1119L46.1019 29.3469L45.3236 29.1707L45.2502 29.4937L45.9697 29.6553L45.911 29.9049L45.1915 29.7287L45.1034 30.1252L45.911 30.3161L45.8523 30.551L44.7509 30.3014Z" fill="#309E3A"/>
</g>
<defs>
<clipPath id="clip0_758_1967">
<rect x="0.432434" y="0.270508" width="93.982" height="70.4865" rx="17.6216" fill="white"/>
</clipPath>
</defs>
</svg>
