<svg width="95" height="71" viewBox="0 0 95 71" fill="none" xmlns="http://www.w3.org/2000/svg">
<g clip-path="url(#clip0_758_2039)">
<path d="M22.4742 0.216309H72.3581V70.7028H22.4595L22.4742 0.216309Z" fill="white"/>
<path d="M-2.46045 0.216309H22.4741V70.7028H-2.46045V0.216309ZM72.358 0.216309H97.2926V70.7028H72.3727L72.358 0.216309ZM29.9487 34.2848L27.9956 34.9309L37.012 42.8606C37.7022 44.8724 36.777 45.4745 36.1896 46.5318L45.9696 45.2983L45.7347 55.137L47.7759 55.093L47.3206 45.313L57.1153 46.4878C56.5133 45.2102 55.9699 44.5347 56.5279 42.4935L65.5296 35.0043L63.9584 34.4169C62.6661 33.4184 64.5164 29.6297 64.7807 27.2361C64.7807 27.2361 59.5383 29.0423 59.2006 28.0878L57.8496 25.518L53.0624 30.7751C52.5484 30.9073 52.3281 30.7017 52.196 30.2612L54.3987 19.277L50.9037 21.2448C50.61 21.3769 50.3163 21.2595 50.1401 20.9217L46.7626 14.1668L43.297 21.186C43.0327 21.4357 42.7684 21.465 42.5628 21.2888L39.2 19.4239L41.2118 30.3052C41.0503 30.7458 40.6685 30.8632 40.2279 30.6283L35.6463 25.4446C35.0589 26.3991 34.6478 27.9557 33.8548 28.3081C33.0618 28.6459 30.4039 27.6473 28.627 27.2802C29.2438 29.4535 31.1234 33.0953 29.9487 34.2848Z" fill="#D52B1E"/>
</g>
<defs>
<clipPath id="clip0_758_2039">
<rect x="0.432434" y="0.216309" width="93.982" height="70.4865" rx="17.6216" fill="white"/>
</clipPath>
</defs>
</svg>
