<svg width="95" height="71" viewBox="0 0 95 71" fill="none" xmlns="http://www.w3.org/2000/svg">
<g clip-path="url(#clip0_758_2058)">
<path fill-rule="evenodd" clip-rule="evenodd" d="M0.432556 0.189453H94.4146V70.6759H0.432556V0.189453Z" fill="#E30A17"/>
<path fill-rule="evenodd" clip-rule="evenodd" d="M60.1993 36.5327C60.1993 46.254 52.1814 54.1397 42.284 54.1397C32.3865 54.1397 24.3687 46.254 24.3687 36.518C24.3687 26.7821 32.3865 18.9258 42.284 18.9258C52.1814 18.9258 60.1993 26.8115 60.1993 36.5327Z" fill="white"/>
<path fill-rule="evenodd" clip-rule="evenodd" d="M61.0802 36.5357C61.0802 44.3186 54.6777 50.6183 46.7626 50.6183C38.8476 50.6183 32.4304 44.3039 32.4304 36.5211C32.4304 28.7382 38.8476 22.4531 46.7626 22.4531C54.6777 22.4531 61.0949 28.7529 61.0949 36.5357H61.0802Z" fill="#E30A17"/>
<path fill-rule="evenodd" clip-rule="evenodd" d="M63.6794 28.3096L63.5326 34.8149L57.4678 36.4596L63.4591 38.5889L63.3123 44.5656L67.2037 39.8958L73.107 41.9517L69.7001 36.9442L73.8559 31.9661L67.468 33.7283L63.6794 28.2949V28.3096Z" fill="white"/>
</g>
<defs>
<clipPath id="clip0_758_2058">
<rect x="0.432434" y="0.189453" width="93.982" height="70.4865" rx="17.6216" fill="white"/>
</clipPath>
</defs>
</svg>
