<svg width="36" height="44" viewBox="0 0 36 44" fill="none" xmlns="http://www.w3.org/2000/svg">
<path d="M28.6076 39.4003C22.5495 36.9626 20.5531 33.9352 21.0703 29.5735H14.4157C14.9329 33.9352 12.9365 36.9626 6.87834 39.4003C0.820206 41.838 0.00646973 44.4999 0.00646973 44.4999H35.5036C35.5036 44.4999 34.6727 41.838 28.6076 39.4003Z" fill="#FF8482"/>
<path d="M17.702 36.6762C19.4007 36.6773 21.0733 36.258 22.5706 35.4556C21.2293 33.7937 20.8052 31.8697 21.0776 29.594H14.4161C14.6885 31.9007 14.2575 33.835 12.8955 35.5073C14.3792 36.2808 16.0288 36.682 17.702 36.6762Z" fill="#FF5B59"/>
<path d="M28.6081 39.4008C26.8366 38.7443 25.1822 37.8072 23.7085 36.6251L18.1261 41.7972L11.8335 36.5527C10.6371 37.5871 9.00962 38.5284 6.87186 39.387C0.813726 41.8247 0 44.4866 0 44.4866H35.5041C35.5041 44.4866 34.6731 41.8385 28.6081 39.4008Z" fill="#6F87ED"/>
<path d="M9.13742 21.6648C10.2511 23.7991 9.78564 26.2472 8.10302 27.1333C6.42039 28.0194 4.13092 27.0057 3.01376 24.8714C1.89661 22.7371 2.36554 20.2856 4.04816 19.3994C5.73079 18.5133 8.02027 19.5201 9.13742 21.6648Z" fill="#FF8482"/>
<path d="M8.1544 25.7338C8.1544 25.6476 8.13371 25.5717 8.12337 25.489C8.13488 25.5389 8.14295 25.5896 8.1475 25.6407C8.14909 25.2765 8.08725 24.9148 7.96476 24.5718C7.73726 23.5558 7.20844 22.6322 6.44745 21.9216C5.68647 21.2111 4.72876 20.7467 3.69958 20.5894C5.05502 21.3762 6.22979 22.4394 7.14759 23.7098C5.93389 23.2167 4.04439 24.2649 4.04439 24.2649C6.27179 23.6719 7.28551 24.1615 7.75099 24.7304C7.92362 25.0482 8.05898 25.3849 8.1544 25.7338Z" fill="#FF5B59"/>
<path d="M26.2667 21.6648C25.1495 23.7991 25.6185 26.2472 27.3011 27.1333C28.9837 28.0194 31.2732 27.0057 32.3903 24.8714C33.5075 22.7371 33.0386 20.2856 31.3559 19.3994C29.6733 18.5133 27.3838 19.5201 26.2667 21.6648Z" fill="#FF8482"/>
<path d="M27.2458 25.7338C27.2458 25.6476 27.27 25.5717 27.2769 25.489C27.2769 25.551 27.2562 25.5993 27.2528 25.6407C27.2521 25.2763 27.3151 24.9145 27.4389 24.5718C27.6669 23.5548 28.1967 22.6305 28.9591 21.9199C29.7214 21.2092 30.6806 20.7455 31.711 20.5894C30.3556 21.3762 29.1808 22.4394 28.263 23.7098C29.4802 23.2167 31.3662 24.2649 31.3662 24.2649C29.1354 23.6719 28.1216 24.1615 27.6562 24.7304C27.4831 25.0488 27.3455 25.3853 27.2458 25.7338Z" fill="#FF5B59"/>
<path d="M30.9869 12.5929C32.3661 9.58275 34.0418 4.26249 27.2389 1.16273C27.2872 1.18687 24.3288 -1.30603 19.0706 3.23153C17.3949 4.70383 15.1468 5.34861 13.0159 4.64522C10.8851 3.94182 8.09218 4.01423 6.54058 7.87254C6.1603 8.7472 5.99365 9.69981 6.05441 10.6516C5.56135 10.0344 4.88899 9.61723 4.26146 10.6171C3.7546 11.3998 4.17181 14.8651 5.39929 17.9993C5.39929 17.9993 6.11303 25.5297 9.53689 26.7021L12.9159 22.068C15.7192 22.0025 19.2085 21.9093 22.0807 21.8473L25.6218 26.7021C28.0733 25.8642 29.1388 21.7887 29.5491 19.5233L29.9491 19.0785C31.5282 17.3339 32.1282 14.9134 31.1593 12.9135C31.1007 12.7997 31.0455 12.6997 30.9869 12.5929Z" fill="#420E2F"/>
<path d="M13.0158 4.63719C10.8918 3.93035 8.09208 4.0131 6.52324 7.86796C6.36727 8.2464 6.24384 8.63744 6.1543 9.03684L6.24395 9.25061C6.24395 9.25061 8.31964 4.39583 13.0158 4.63719Z" fill="#7C1A59"/>
<path d="M27.2286 1.16202C27.2665 1.16202 25.4804 -0.32752 22.2048 1.16202C22.8462 1.16202 31.0283 1.24477 32.0834 9.26482C32.5868 6.49262 31.9282 3.29978 27.2286 1.16202Z" fill="#7C1A59"/>
<path d="M14.5812 9.50584C12.6958 9.50573 10.8865 10.2495 9.54629 11.5755C8.20606 12.9015 7.44309 14.7028 7.42311 16.588L7.35071 23.4116C7.35071 29.6491 11.9848 34.7107 17.6947 34.7107C23.4046 34.7107 28.0387 29.6491 28.0387 23.4116L28.018 16.1708C28.018 12.4884 25.6423 7.40601 21.9564 7.40601L14.5812 9.50584Z" fill="#FDB193"/>
<path opacity="0.39" d="M18.5183 29.8588C18.5183 29.8588 20.3733 29.914 21.0354 28.4382C21.0354 28.4382 21.5629 29.514 20.2975 30.1622C19.0321 30.8105 18.5183 29.8588 18.5183 29.8588Z" fill="#FF8282"/>
<g style="mix-blend-mode:multiply" opacity="0.55">
<path d="M28.0285 16.1708C28.0285 12.4884 25.6529 7.40601 21.9669 7.40601L14.5813 9.50584C12.696 9.50573 10.8867 10.2495 9.54646 11.5755C8.20622 12.9015 7.44326 14.7028 7.42328 16.588L7.38879 19.8188L8.42319 18.0431C8.42319 18.0121 9.14038 14.9709 15.695 14.8882C17.9845 14.8571 20.7705 14.1986 22.591 11.5609C23.2427 13.5193 24.3323 15.2812 25.6287 16.3398C26.3171 16.9222 27.1518 17.305 28.0423 17.4466L28.0285 16.1708Z" fill="#FDB193"/>
</g>
<path d="M20.8495 25.3789C20.9735 25.7168 21.0365 26.0741 21.0357 26.434C21.0523 27.1695 20.7917 27.8843 20.3056 28.4365C19.8195 28.9887 19.1435 29.338 18.4118 29.4148C17.6802 29.4917 16.9464 29.2905 16.3562 28.8514C15.7659 28.4122 15.3624 27.7672 15.2258 27.0443L20.8495 25.3789Z" fill="#230F0B"/>
<path d="M18.102 29.4442C17.6205 29.4472 17.1461 29.3286 16.7228 29.0994C16.8812 28.4339 17.263 27.8429 17.8045 27.425C18.3461 27.0071 19.0145 26.7876 19.6984 26.803C20.1388 26.8035 20.5743 26.895 20.9776 27.072C20.8437 27.7375 20.4848 28.3367 19.9611 28.7687C19.4374 29.2008 18.7809 29.4393 18.102 29.4442Z" fill="#E8132C"/>
<path d="M19.1772 23.581C19.1772 24.5602 18.5152 25.3533 17.7015 25.3533C16.8878 25.3533 16.2223 24.5602 16.2223 23.581C16.2223 22.6018 16.8843 21.3743 17.7015 21.3743C18.5187 21.3743 19.1772 22.6018 19.1772 23.581Z" fill="#FF6A68"/>
<path d="M23.0245 20.434C23.0245 21.2442 22.7521 21.9028 22.4107 21.9028C22.0694 21.9028 21.797 21.2442 21.797 20.434C21.797 19.6237 22.0728 18.9617 22.4107 18.9617C22.7486 18.9617 23.0245 19.6202 23.0245 20.434Z" fill="#25110D"/>
<path d="M25.3039 18.8232C25.3832 18.7784 21.98 16.6268 19.8802 16.7061C19.856 16.7406 19.9216 14.827 22.7075 15.8303C25.4108 16.9406 25.2797 18.8542 25.3039 18.8232Z" fill="#420E2F"/>
<path d="M12.9873 21.9016C13.3262 21.9016 13.601 21.2439 13.601 20.4327C13.601 19.6215 13.3262 18.9639 12.9873 18.9639C12.6483 18.9639 12.3735 19.6215 12.3735 20.4327C12.3735 21.2439 12.6483 21.9016 12.9873 21.9016Z" fill="#25110D"/>
<path d="M9.78444 18.8235C9.70514 18.7786 13.1083 16.6271 15.2082 16.7064C15.2357 16.7409 15.1668 14.8272 12.3808 15.8306C9.681 16.9408 9.80858 18.8545 9.78444 18.8235Z" fill="#420E2F"/>
<path d="M11.5152 25.4229C11.4749 25.4232 11.4349 25.4149 11.398 25.3987C11.333 25.3668 11.2832 25.3105 11.2593 25.2421C11.2354 25.1737 11.2394 25.0987 11.2704 25.0332L12.1289 23.2575C12.1622 23.1955 12.2181 23.1487 12.2851 23.127C12.3521 23.1053 12.4248 23.1104 12.4881 23.1412C12.5514 23.1719 12.6003 23.226 12.6247 23.292C12.649 23.3581 12.6468 23.431 12.6186 23.4954L11.76 25.2712C11.7378 25.317 11.703 25.3557 11.6596 25.3825C11.6163 25.4094 11.5662 25.4234 11.5152 25.4229Z" fill="#FF6A68"/>
<path d="M9.80174 25.4229C9.75548 25.4236 9.70981 25.4125 9.66913 25.3904C9.62846 25.3684 9.59415 25.3362 9.56954 25.297C9.54492 25.2579 9.53084 25.213 9.52863 25.1668C9.52642 25.1206 9.53617 25.0746 9.55693 25.0332L10.4155 23.2575C10.4487 23.1955 10.5047 23.1487 10.5716 23.127C10.6386 23.1053 10.7113 23.1104 10.7746 23.1412C10.8379 23.1719 10.8869 23.226 10.9112 23.292C10.9355 23.3581 10.9333 23.431 10.9051 23.4954L10.0466 25.2712C10.024 25.3168 9.9891 25.3552 9.94583 25.382C9.90256 25.4088 9.85264 25.423 9.80174 25.4229Z" fill="#FF6A68"/>
<path d="M23.7213 25.4241C23.6704 25.4242 23.6205 25.4101 23.5772 25.3832C23.534 25.3564 23.4991 25.318 23.4765 25.2724L22.618 23.4967C22.5897 23.4322 22.5876 23.3593 22.6119 23.2933C22.6362 23.2272 22.6851 23.1731 22.7484 23.1424C22.8117 23.1116 22.8845 23.1066 22.9514 23.1283C23.0184 23.1499 23.0743 23.1967 23.1076 23.2587L23.9661 25.0345C23.9971 25.0999 24.0011 25.175 23.9772 25.2433C23.9534 25.3117 23.9036 25.368 23.8386 25.3999C23.8016 25.4162 23.7617 25.4244 23.7213 25.4241Z" fill="#FF6A68"/>
<path d="M25.4349 25.4242C25.384 25.4243 25.3341 25.4102 25.2908 25.3834C25.2475 25.3566 25.2127 25.3182 25.1901 25.2725L24.335 23.4968C24.3192 23.4649 24.3098 23.4302 24.3075 23.3947C24.3051 23.3591 24.3099 23.3235 24.3214 23.2898C24.333 23.2562 24.3511 23.2251 24.3747 23.1985C24.3984 23.1719 24.4271 23.1502 24.4591 23.1348C24.4913 23.1188 24.5262 23.1094 24.562 23.107C24.5978 23.1047 24.6337 23.1094 24.6677 23.1209C24.7016 23.1324 24.733 23.1506 24.7599 23.1743C24.7868 23.1979 24.8088 23.2267 24.8246 23.2589L25.6797 25.0346C25.711 25.0997 25.7154 25.1743 25.6922 25.2427C25.669 25.311 25.62 25.3675 25.5556 25.4001C25.5176 25.4167 25.4764 25.4249 25.4349 25.4242Z" fill="#FF6A68"/>
<path d="M28.4906 13.2266L23.6324 4.92041L11.8919 8.4753L5.59241 16.1057C6.29627 16.5825 6.91124 17.1788 7.4095 17.8676C7.4095 17.8676 8.0991 13.9507 15.6847 13.8542C20.6705 13.7887 22.3221 10.6648 22.9738 8.13739C23.1117 11.0854 24.5461 14.1266 26.277 15.5368C26.747 15.9633 27.3227 16.2561 27.9443 16.3847C28.5658 16.5132 29.2105 16.4729 29.8112 16.2678L28.4906 13.2266Z" fill="#420E2F"/>
</svg>
