<svg width="20" height="20" viewBox="0 0 20 20" fill="none" xmlns="http://www.w3.org/2000/svg">
<path d="M17.5666 7.15011V12.8501C17.5666 13.7834 17.0666 14.6501 16.2583 15.1251L11.3083 17.9834C10.4999 18.4501 9.49993 18.4501 8.68326 17.9834L3.73326 15.1251C2.92493 14.6584 2.42493 13.7917 2.42493 12.8501V7.15011C2.42493 6.21678 2.92493 5.35008 3.73326 4.87508L8.68326 2.01675C9.49159 1.55008 10.4916 1.55008 11.3083 2.01675L16.2583 4.87508C17.0666 5.35008 17.5666 6.20844 17.5666 7.15011Z" stroke="#00091F" stroke-linecap="round" stroke-linejoin="round"/>
<path d="M9.99989 9.16676C11.0722 9.16676 11.9416 8.29743 11.9416 7.22508C11.9416 6.15272 11.0722 5.28345 9.99989 5.28345C8.92754 5.28345 8.05823 6.15272 8.05823 7.22508C8.05823 8.29743 8.92754 9.16676 9.99989 9.16676Z" stroke="#00091F" stroke-linecap="round" stroke-linejoin="round"/>
<path d="M13.3333 13.8834C13.3333 12.3834 11.8416 11.1667 9.99996 11.1667C8.15829 11.1667 6.66663 12.3834 6.66663 13.8834" stroke="#00091F" stroke-linecap="round" stroke-linejoin="round"/>
</svg>
