<svg width="296" height="37" viewBox="0 0 296 37" fill="none" xmlns="http://www.w3.org/2000/svg">
<rect width="97.5" height="1" transform="translate(0 17.9912)" fill="#00091F" fill-opacity="0.2"/>
<path d="M106.444 17.2912C106.444 16.0752 106.864 15.0472 107.704 14.2072C108.544 13.3592 109.572 12.9352 110.788 12.9352C112.004 12.9352 113.032 13.3592 113.872 14.2072C114.72 15.0472 115.144 16.0752 115.144 17.2912C115.144 18.4992 114.72 19.5272 113.872 20.3752C113.032 21.2232 112.004 21.6472 110.788 21.6472C109.572 21.6472 108.544 21.2232 107.704 20.3752C106.864 19.5192 106.444 18.4912 106.444 17.2912ZM114.028 17.2912C114.028 16.3632 113.716 15.5872 113.092 14.9632C112.484 14.3312 111.716 14.0152 110.788 14.0152C109.868 14.0152 109.096 14.3312 108.472 14.9632C107.856 15.5952 107.548 16.3712 107.548 17.2912C107.548 18.2032 107.856 18.9792 108.472 19.6192C109.096 20.2432 109.868 20.5552 110.788 20.5552C111.716 20.5552 112.484 20.2432 113.092 19.6192C113.716 18.9792 114.028 18.2032 114.028 17.2912ZM117.422 15.4912V16.4992C117.766 15.7552 118.39 15.3832 119.294 15.3832V16.4752C118.782 16.4512 118.342 16.5872 117.974 16.8832C117.606 17.1792 117.422 17.6552 117.422 18.3112V21.4912H116.378V15.4912H117.422ZM119.82 20.2552H121.02L120.24 23.1712H119.34L119.82 20.2552ZM128.315 21.6472C127.531 21.6472 126.859 21.4672 126.299 21.1072C125.747 20.7392 125.359 20.2312 125.135 19.5832L126.095 19.0312C126.415 20.0472 127.163 20.5552 128.339 20.5552C128.907 20.5552 129.343 20.4392 129.647 20.2072C129.959 19.9752 130.115 19.6592 130.115 19.2592C130.115 18.8672 129.963 18.5672 129.659 18.3592C129.387 18.1752 128.879 17.9632 128.135 17.7232L127.331 17.4592C127.155 17.3872 126.923 17.2832 126.635 17.1472C126.355 17.0032 126.151 16.8592 126.023 16.7152C125.671 16.3312 125.495 15.8632 125.495 15.3112C125.495 14.5752 125.751 13.9992 126.263 13.5832C126.775 13.1512 127.399 12.9352 128.135 12.9352C128.791 12.9352 129.367 13.0992 129.863 13.4272C130.359 13.7552 130.731 14.2032 130.979 14.7712L130.043 15.3112C129.683 14.4472 129.047 14.0152 128.135 14.0152C127.679 14.0152 127.311 14.1272 127.031 14.3512C126.751 14.5752 126.611 14.8792 126.611 15.2632C126.611 15.6312 126.743 15.9112 127.007 16.1032C127.279 16.3032 127.735 16.5032 128.375 16.7032L128.867 16.8592C129.139 16.9632 129.287 17.0192 129.311 17.0272C129.567 17.1232 129.847 17.2552 130.151 17.4232C130.367 17.5432 130.583 17.7272 130.799 17.9752C131.079 18.2552 131.219 18.6752 131.219 19.2352C131.219 19.9712 130.951 20.5592 130.415 20.9992C129.871 21.4312 129.171 21.6472 128.315 21.6472ZM132.961 14.3992C132.761 14.3992 132.593 14.3312 132.457 14.1952C132.321 14.0592 132.253 13.8952 132.253 13.7032C132.253 13.5112 132.321 13.3472 132.457 13.2112C132.593 13.0672 132.761 12.9952 132.961 12.9952C133.153 12.9952 133.317 13.0672 133.453 13.2112C133.589 13.3472 133.657 13.5112 133.657 13.7032C133.657 13.8952 133.589 14.0592 133.453 14.1952C133.317 14.3312 133.153 14.3992 132.961 14.3992ZM133.477 21.4912H132.433V15.4912H133.477V21.4912ZM138.057 15.3352C138.761 15.3352 139.325 15.5592 139.749 16.0072C140.173 16.4472 140.385 17.0472 140.385 17.8072V21.4912H139.341V17.8672C139.341 17.3872 139.209 17.0112 138.945 16.7392C138.681 16.4672 138.317 16.3312 137.853 16.3312C137.317 16.3312 136.893 16.4992 136.581 16.8352C136.269 17.1632 136.113 17.6552 136.113 18.3112V21.4912H135.069V15.4912H136.113V16.3552C136.529 15.6752 137.177 15.3352 138.057 15.3352ZM146.823 16.5232V15.4912H147.855V21.2392C147.855 22.1272 147.555 22.8152 146.955 23.3032C146.347 23.7992 145.627 24.0472 144.795 24.0472C144.123 24.0472 143.543 23.9192 143.055 23.6632C142.567 23.4152 142.199 23.0552 141.951 22.5832L142.863 22.0672C143.191 22.7392 143.843 23.0752 144.819 23.0752C145.443 23.0752 145.931 22.9112 146.283 22.5832C146.643 22.2552 146.823 21.8072 146.823 21.2392V20.3872C146.295 21.1872 145.543 21.5872 144.567 21.5872C143.703 21.5872 142.979 21.2832 142.395 20.6752C141.803 20.0592 141.507 19.3192 141.507 18.4552C141.507 17.5912 141.803 16.8552 142.395 16.2472C142.979 15.6392 143.703 15.3352 144.567 15.3352C145.551 15.3352 146.303 15.7312 146.823 16.5232ZM146.823 18.4552C146.823 17.8552 146.619 17.3512 146.211 16.9432C145.803 16.5352 145.295 16.3312 144.687 16.3312C144.079 16.3312 143.571 16.5352 143.163 16.9432C142.755 17.3512 142.551 17.8552 142.551 18.4552C142.551 19.0632 142.755 19.5712 143.163 19.9792C143.571 20.3872 144.079 20.5912 144.687 20.5912C145.295 20.5912 145.803 20.3872 146.211 19.9792C146.619 19.5712 146.823 19.0632 146.823 18.4552ZM152.545 21.4912V13.0912H153.661V21.4912H152.545ZM158.343 15.3352C159.047 15.3352 159.611 15.5592 160.035 16.0072C160.459 16.4472 160.671 17.0472 160.671 17.8072V21.4912H159.627V17.8672C159.627 17.3872 159.495 17.0112 159.231 16.7392C158.967 16.4672 158.603 16.3312 158.139 16.3312C157.603 16.3312 157.179 16.4992 156.867 16.8352C156.555 17.1632 156.399 17.6552 156.399 18.3112V21.4912H155.354V15.4912H156.399V16.3552C156.815 15.6752 157.463 15.3352 158.343 15.3352ZM168.344 21.4912H167.048L164.636 13.0912H165.812L167.732 20.0032L169.772 13.0912H170.9L172.94 20.0032L174.86 13.0912H176.036L173.624 21.4912H172.328L170.336 14.7832L168.344 21.4912ZM177.422 14.3992C177.222 14.3992 177.054 14.3312 176.918 14.1952C176.782 14.0592 176.714 13.8952 176.714 13.7032C176.714 13.5112 176.782 13.3472 176.918 13.2112C177.054 13.0672 177.222 12.9952 177.422 12.9952C177.614 12.9952 177.778 13.0672 177.914 13.2112C178.05 13.3472 178.118 13.5112 178.118 13.7032C178.118 13.8952 178.05 14.0592 177.914 14.1952C177.778 14.3312 177.614 14.3992 177.422 14.3992ZM177.938 21.4912H176.894V15.4912H177.938V21.4912ZM182.794 15.4912V16.4992H181.198V19.7512C181.198 20.0472 181.254 20.2592 181.366 20.3872C181.486 20.5072 181.666 20.5712 181.906 20.5792C182.146 20.5792 182.442 20.5712 182.794 20.5552V21.4912C181.874 21.6112 181.202 21.5352 180.778 21.2632C180.362 20.9912 180.154 20.4872 180.154 19.7512V16.4992H178.966V15.4912H180.154V14.1232L181.198 13.8112V15.4912H182.794ZM187.018 15.3352C187.722 15.3352 188.286 15.5592 188.71 16.0072C189.134 16.4472 189.346 17.0472 189.346 17.8072V21.4912H188.302V17.8672C188.302 17.3872 188.17 17.0112 187.906 16.7392C187.642 16.4672 187.278 16.3312 186.814 16.3312C186.278 16.3312 185.854 16.4992 185.542 16.8352C185.23 17.1632 185.074 17.6552 185.074 18.3112V21.4912H184.03V13.0912H185.074V16.3552C185.49 15.6752 186.138 15.3352 187.018 15.3352Z" fill="#00091F" fill-opacity="0.4"/>
<rect width="97.5" height="1" transform="translate(198.5 17.9912)" fill="#00091F" fill-opacity="0.2"/>
</svg>
