<svg width="20" height="21" viewBox="0 0 20 21" fill="none" xmlns="http://www.w3.org/2000/svg">
<path d="M17.9999 8.99105H10.1666V12.0744H14.7499C14.6666 12.8244 14.1666 13.991 13.0833 14.741C12.4166 15.241 11.4166 15.5744 10.1666 15.5744C7.99992 15.5744 6.08325 14.1577 5.41659 12.0744C5.24992 11.5744 5.16659 10.991 5.16659 10.4077C5.16659 9.82438 5.24992 9.24105 5.41659 8.74105C5.49992 8.57438 5.49992 8.40771 5.58325 8.32438C6.33325 6.57438 8.08325 5.32438 10.1666 5.32438C11.7499 5.32438 12.7499 5.99105 13.4166 6.57438L15.7499 4.24105C14.3333 2.99105 12.4166 2.15771 10.1666 2.15771C6.91659 2.15771 4.08325 3.99105 2.74992 6.74105C2.16659 7.90771 1.83325 9.15771 1.83325 10.491C1.83325 11.8244 2.16659 13.0744 2.74992 14.241C4.08325 16.991 6.91659 18.8244 10.1666 18.8244C12.4166 18.8244 14.3333 18.0744 15.6666 16.8244C17.2499 15.4077 18.1666 13.241 18.1666 10.6577C18.1666 9.99105 18.0833 9.49105 17.9999 8.99105Z" stroke="#00091F" stroke-miterlimit="10" stroke-linecap="round" stroke-linejoin="round"/>
</svg>
