<svg width="14" height="14" viewBox="0 0 14 14" fill="none" xmlns="http://www.w3.org/2000/svg">
<path d="M6.99998 0.333252C3.32665 0.333252 0.333313 3.32659 0.333313 6.99992C0.333313 10.6733 3.32665 13.6666 6.99998 13.6666C10.6733 13.6666 13.6666 10.6733 13.6666 6.99992C13.6666 3.32659 10.6733 0.333252 6.99998 0.333252ZM6.49998 4.33325C6.49998 4.05992 6.72665 3.83325 6.99998 3.83325C7.27331 3.83325 7.49998 4.05992 7.49998 4.33325V7.66658C7.49998 7.93992 7.27331 8.16658 6.99998 8.16658C6.72665 8.16658 6.49998 7.93992 6.49998 7.66658V4.33325ZM7.61331 9.91992C7.57998 10.0066 7.53331 10.0733 7.47331 10.1399C7.40665 10.1999 7.33331 10.2466 7.25331 10.2799C7.17331 10.3133 7.08665 10.3333 6.99998 10.3333C6.91331 10.3333 6.82665 10.3133 6.74665 10.2799C6.66665 10.2466 6.59331 10.1999 6.52665 10.1399C6.46665 10.0733 6.41998 10.0066 6.38665 9.91992C6.35331 9.83992 6.33331 9.75325 6.33331 9.66658C6.33331 9.57992 6.35331 9.49325 6.38665 9.41325C6.41998 9.33325 6.46665 9.25992 6.52665 9.19325C6.59331 9.13325 6.66665 9.08659 6.74665 9.05325C6.90665 8.98658 7.09331 8.98658 7.25331 9.05325C7.33331 9.08659 7.40665 9.13325 7.47331 9.19325C7.53331 9.25992 7.57998 9.33325 7.61331 9.41325C7.64665 9.49325 7.66665 9.57992 7.66665 9.66658C7.66665 9.75325 7.64665 9.83992 7.61331 9.91992Z" fill="#00091F" fill-opacity="0.4"/>
</svg>
